<svg xmlns="http://www.w3.org/2000/svg" xmlns:xlink="http://www.w3.org/1999/xlink" width="500" zoomAndPan="magnify" viewBox="0 0 375 374.999991" height="500" preserveAspectRatio="xMidYMid meet" version="1.0"><defs><clipPath id="10b4ba7397"><path d="M 124.949219 103.613281 L 155.699219 103.613281 L 155.699219 104 L 124.949219 104 Z M 124.949219 103.613281 " clip-rule="nonzero"/></clipPath><clipPath id="698aae35aa"><path d="M 124.949219 105 L 155.699219 105 L 155.699219 106 L 124.949219 106 Z M 124.949219 105 " clip-rule="nonzero"/></clipPath><clipPath id="4c405f207b"><path d="M 124.949219 108 L 155.699219 108 L 155.699219 109 L 124.949219 109 Z M 124.949219 108 " clip-rule="nonzero"/></clipPath><clipPath id="b53a1ff182"><path d="M 124.949219 110 L 155.699219 110 L 155.699219 111 L 124.949219 111 Z M 124.949219 110 " clip-rule="nonzero"/></clipPath><clipPath id="228edc4546"><path d="M 124.949219 112 L 155.699219 112 L 155.699219 113 L 124.949219 113 Z M 124.949219 112 " clip-rule="nonzero"/></clipPath><clipPath id="5d17d00781"><path d="M 124.949219 114 L 155.699219 114 L 155.699219 115 L 124.949219 115 Z M 124.949219 114 " clip-rule="nonzero"/></clipPath><clipPath id="fbf5b2637e"><path d="M 124.949219 116 L 155.699219 116 L 155.699219 118 L 124.949219 118 Z M 124.949219 116 " clip-rule="nonzero"/></clipPath><clipPath id="c2c527f023"><path d="M 124.949219 119 L 155.699219 119 L 155.699219 120 L 124.949219 120 Z M 124.949219 119 " clip-rule="nonzero"/></clipPath><clipPath id="4ea6c00468"><path d="M 124.949219 121 L 155.699219 121 L 155.699219 122 L 124.949219 122 Z M 124.949219 121 " clip-rule="nonzero"/></clipPath><clipPath id="c10f18cca8"><path d="M 124.949219 123 L 155.699219 123 L 155.699219 124 L 124.949219 124 Z M 124.949219 123 " clip-rule="nonzero"/></clipPath><clipPath id="e42f9d6901"><path d="M 124.949219 125 L 155.699219 125 L 155.699219 126 L 124.949219 126 Z M 124.949219 125 " clip-rule="nonzero"/></clipPath><clipPath id="a430d73ef3"><path d="M 124.949219 128 L 155.699219 128 L 155.699219 128.363281 L 124.949219 128.363281 Z M 124.949219 128 " clip-rule="nonzero"/></clipPath></defs><g clip-path="url(#10b4ba7397)"><path fill="#a6a6a6" d="M 124.953125 103.65625 L 155.609375 103.613281 L 155.609375 103.675781 L 124.953125 103.71875 Z M 124.953125 103.65625 " fill-opacity="1" fill-rule="nonzero"/></g><g clip-path="url(#698aae35aa)"><path fill="#a6a6a6" d="M 124.953125 105.882812 L 155.609375 105.839844 L 155.613281 105.902344 L 124.953125 105.945312 Z M 124.953125 105.882812 " fill-opacity="1" fill-rule="nonzero"/></g><g clip-path="url(#4c405f207b)"><path fill="#a6a6a6" d="M 124.949219 108.113281 L 155.609375 108.070312 L 155.609375 108.128906 L 124.949219 108.171875 Z M 124.949219 108.113281 " fill-opacity="1" fill-rule="nonzero"/></g><g clip-path="url(#b53a1ff182)"><path fill="#a6a6a6" d="M 124.949219 110.339844 L 155.609375 110.296875 L 155.609375 110.359375 L 124.949219 110.402344 Z M 124.949219 110.339844 " fill-opacity="1" fill-rule="nonzero"/></g><g clip-path="url(#228edc4546)"><path fill="#a6a6a6" d="M 124.949219 112.566406 L 155.609375 112.523438 L 155.609375 112.585938 L 124.949219 112.628906 Z M 124.949219 112.566406 " fill-opacity="1" fill-rule="nonzero"/></g><g clip-path="url(#5d17d00781)"><path fill="#a6a6a6" d="M 124.949219 114.792969 L 155.609375 114.75 L 155.609375 114.8125 L 124.949219 114.855469 Z M 124.949219 114.792969 " fill-opacity="1" fill-rule="nonzero"/></g><g clip-path="url(#fbf5b2637e)"><path fill="#a6a6a6" d="M 124.949219 117.019531 L 155.609375 116.976562 L 155.609375 117.039062 L 124.949219 117.082031 Z M 124.949219 117.019531 " fill-opacity="1" fill-rule="nonzero"/></g><g clip-path="url(#c2c527f023)"><path fill="#a6a6a6" d="M 124.949219 119.25 L 155.609375 119.207031 L 155.609375 119.265625 L 124.949219 119.308594 Z M 124.949219 119.25 " fill-opacity="1" fill-rule="nonzero"/></g><g clip-path="url(#4ea6c00468)"><path fill="#a6a6a6" d="M 124.949219 121.476562 L 155.609375 121.433594 L 155.609375 121.496094 L 124.949219 121.539062 Z M 124.949219 121.476562 " fill-opacity="1" fill-rule="nonzero"/></g><g clip-path="url(#c10f18cca8)"><path fill="#a6a6a6" d="M 124.949219 123.703125 L 155.609375 123.660156 L 155.609375 123.722656 L 124.949219 123.765625 Z M 124.949219 123.703125 " fill-opacity="1" fill-rule="nonzero"/></g><g clip-path="url(#e42f9d6901)"><path fill="#a6a6a6" d="M 124.949219 125.929688 L 155.609375 125.886719 L 155.609375 125.949219 L 124.949219 125.992188 Z M 124.949219 125.929688 " fill-opacity="1" fill-rule="nonzero"/></g><g clip-path="url(#a430d73ef3)"><path fill="#a6a6a6" d="M 124.949219 128.160156 L 155.609375 128.117188 L 155.609375 128.175781 L 124.949219 128.21875 Z M 124.949219 128.160156 " fill-opacity="1" fill-rule="nonzero"/></g><path fill="#ffffff" d="M 53.085938 54.363281 C 51.972656 54.394531 50.886719 54.585938 49.832031 54.933594 C 48.773438 55.285156 47.789062 55.78125 46.878906 56.417969 C 45.964844 57.058594 45.167969 57.816406 44.480469 58.691406 C 43.792969 59.570312 43.246094 60.523438 42.839844 61.5625 C 42.433594 62.597656 42.183594 63.671875 42.09375 64.78125 C 42.003906 65.890625 42.074219 66.992188 42.308594 68.078125 C 42.542969 69.167969 42.929688 70.199219 43.46875 71.175781 C 44.003906 72.148438 44.671875 73.027344 45.46875 73.804688 L 155.339844 180.574219 C 157.003906 182.203125 158.980469 183.222656 161.273438 183.632812 L 291.449219 206.527344 L 291.449219 273.550781 C 284.695312 277.476562 280.113281 284.703125 280.113281 293.082031 C 280.113281 305.609375 302.785156 338.429688 302.785156 338.429688 C 302.785156 338.429688 325.460938 305.609375 325.460938 293.082031 C 325.460938 284.703125 320.875 277.476562 314.125 273.550781 L 314.125 210.3125 C 315.25 210.3125 316.347656 210.144531 317.425781 209.8125 C 318.5 209.484375 319.503906 209.003906 320.4375 208.375 C 321.371094 207.746094 322.191406 206.992188 322.902344 206.121094 C 323.609375 205.246094 324.175781 204.289062 324.601562 203.246094 C 325.023438 202.203125 325.289062 201.121094 325.390625 200 C 325.492188 198.878906 325.425781 197.769531 325.199219 196.667969 C 324.96875 195.566406 324.585938 194.519531 324.042969 193.535156 C 323.503906 192.546875 322.832031 191.660156 322.027344 190.871094 L 212.15625 84.101562 C 210.488281 82.480469 208.511719 81.46875 206.222656 81.066406 L 55.34375 54.519531 C 54.597656 54.390625 53.84375 54.339844 53.085938 54.363281 Z M 77 136.070312 L 46.707031 195.34375 C 46.707031 195.34375 82.390625 213.570312 117.808594 261.683594 C 177.554688 262.21875 213.242188 280.460938 213.242188 280.460938 L 243.578125 221.117188 L 157.355469 205.953125 C 150.632812 204.773438 144.417969 201.601562 139.53125 196.851562 Z M 77 136.070312 " fill-opacity="1" fill-rule="nonzero"/></svg>